<svg xmlns="http://www.w3.org/2000/svg" width="196.594" height="47.656" viewBox="0 0 196.594 47.656">
  <defs>
    <style>
      .cls-1 {
        fill: #fff;
        fill-rule: evenodd;
      }
    </style>
  </defs>
  <path id="studio" class="cls-1" d="M78.36,47.286H93.115a13.613,13.613,0,0,0,13.961-14.028A12.727,12.727,0,0,0,103.04,23.4c-2.448-2.117-6.087-3.176-10.587-4.5-2.051-.6-2.977-1.853-2.977-3.507,0-1.588.86-2.845,3.176-2.845h8.8V1.63H95.3c-4.566,0-5.823.132-6.948,0.4-6.617,1.389-10.123,6.815-10.123,13.3A13.081,13.081,0,0,0,81.8,24.789c2.25,2.316,4.963,3.176,10.918,5.161,1.588,0.529,3.11,1.72,3.11,3.507,0,1.588-1.257,2.911-4.036,2.911H78.36V47.286ZM140.491,1.63H108.73V12.548h10.256V47.286h11.249V12.548h10.256V1.63Zm18.395,46.317c7.807,0,16.409-5.293,16.409-17.865V1.63H164.047V30.082c0,4.3-1.324,6.948-5.161,6.948s-5.162-2.647-5.162-6.948V1.63H142.476V30.082C142.476,42.654,151.078,47.947,158.886,47.947Zm18.394-.662h7.94c6.087,0,9.726-.529,12.638-1.522a22.325,22.325,0,0,0,15.152-21.24A22.788,22.788,0,0,0,194.417,2.159a57.826,57.826,0,0,0-9.2-.529h-7.94V47.286Zm11.248-10.918V12.548c8.6,0,13.234,5.624,13.234,11.91S197.13,36.368,188.528,36.368ZM214.4,47.286h11.249V1.63H214.4V47.286Zm36.459,0.992a23.821,23.821,0,1,0,0-47.641,23.624,23.624,0,0,0-23.821,23.754A23.7,23.7,0,0,0,250.858,48.278Zm0.066-10.984a12.708,12.708,0,0,1-12.638-12.77A12.639,12.639,0,1,1,250.924,37.294Z" transform="translate(-78.219 -0.625)"/>
</svg>
