<svg width="9" height="9" viewBox="0 0 9 9" fill="none" xmlns="http://www.w3.org/2000/svg">
<path d="M8.19715 1.145H2.98042C2.29548 1.145 1.66418 0.774299 1.33048 0.176147C1.2698 0.0673947 1.15503 0 1.0305 0H0.3435C0.153792 0 0 0.153792 0 0.3435C0 0.533208 0.153792 0.687 0.3435 0.687C0.643113 0.687 0.919262 0.849155 1.06524 1.1108L1.36222 1.64314L2.59245 4.36515L2.59371 4.3679C2.65931 4.51305 2.63105 4.68341 2.52211 4.79961L1.46691 5.92515C1.3781 6.01991 1.3503 6.15662 1.39506 6.27849C1.43982 6.40041 1.54949 6.48665 1.67851 6.5014L2.80433 6.63005C4.21255 6.79099 5.6345 6.79099 7.04267 6.63005L8.16852 6.5014C8.35699 6.47983 8.49233 6.30959 8.4708 6.12108C8.44923 5.93261 8.27899 5.79727 8.09052 5.81884L6.96467 5.9475C5.6083 6.10248 4.2387 6.10248 2.88234 5.9475C2.69772 5.92639 2.61603 5.70392 2.74312 5.56836L3.3421 4.92945C3.35815 4.91228 3.38095 4.9022 3.40426 4.90523L3.71133 4.94521C4.1945 5.00809 4.68287 5.02041 5.16858 4.98199C6.30144 4.8924 7.35136 4.35334 8.08439 3.48497L8.34911 3.17131C8.35804 3.16077 8.36629 3.14972 8.37384 3.13819L8.86729 2.38622C9.21702 1.85322 8.83468 1.145 8.19715 1.145Z" fill="#212121"/>
<path d="M2.40448 7.21352C2.02506 7.21352 1.71748 7.52112 1.71748 7.90052C1.71748 8.27993 2.02506 8.58752 2.40448 8.58752C2.7839 8.58752 3.09148 8.27993 3.09148 7.90052C3.09148 7.52112 2.7839 7.21352 2.40448 7.21352Z" fill="#212121"/>
<path d="M6.75542 7.90052C6.75542 7.52112 7.06301 7.21352 7.44242 7.21352C7.82183 7.21352 8.12942 7.52112 8.12942 7.90052C8.12942 8.27993 7.82183 8.58752 7.44242 8.58752C7.06301 8.58752 6.75542 8.27993 6.75542 7.90052Z" fill="#212121"/>
</svg>
