<svg width="8" height="7" viewBox="0 0 8 7" fill="none" xmlns="http://www.w3.org/2000/svg">
<path fill-rule="evenodd" clip-rule="evenodd" d="M0.0820951 1.66154C-0.0372527 2.77045 -0.0319316 4.04939 0.134143 5.15378C0.226038 5.76488 0.724777 6.23334 1.34042 6.28689L1.98382 6.34279C3.32542 6.45944 4.67457 6.45944 6.01618 6.34279L6.65956 6.28689C7.27522 6.23334 7.77397 5.76488 7.86587 5.15378C8.03193 4.04939 8.03726 2.77053 7.91788 1.6616C7.90246 1.53304 7.88512 1.40466 7.86587 1.27649C7.77397 0.665396 7.27522 0.196913 6.65956 0.143395L6.01618 0.0874659C4.67457 -0.0291553 3.32542 -0.0291553 1.98382 0.0874659L1.34042 0.143395C0.724777 0.196913 0.226038 0.665396 0.134143 1.27649C0.114874 1.40463 0.0975259 1.533 0.0820951 1.66154ZM2.03916 0.724111C3.34391 0.610689 4.65608 0.610689 5.96083 0.724111L6.60422 0.78004C6.92558 0.807975 7.18592 1.05252 7.23389 1.37151C7.23888 1.40464 7.24374 1.43778 7.24846 1.47094L4.87932 2.78715C4.33247 3.09095 3.66752 3.09095 3.12066 2.78715L0.75154 1.47096C0.756252 1.4378 0.761101 1.40465 0.766081 1.37151C0.814052 1.05252 1.07439 0.807975 1.39576 0.78004L2.03916 0.724111ZM7.32664 2.15854C7.40929 3.12465 7.37836 4.09808 7.23389 5.05874C7.18592 5.37775 6.92558 5.62229 6.60422 5.65024L5.96083 5.70617C4.65608 5.81958 3.34391 5.81958 2.03916 5.70617L1.39576 5.65024C1.07439 5.62229 0.814052 5.37775 0.766081 5.05874C0.621619 4.09808 0.590706 3.12469 0.673343 2.15855L2.81031 3.34576C3.55019 3.75679 4.44979 3.75679 5.18964 3.34576L7.32664 2.15854Z" fill="#A1FF60"/>
</svg>
