<svg width="10" height="10" viewBox="0 0 10 10" fill="none" xmlns="http://www.w3.org/2000/svg">
<path fill-rule="evenodd" clip-rule="evenodd" d="M6.01007 5.00009L9.79072 1.21944C10.07 0.940162 10.07 0.488741 9.79072 0.209461C9.51144 -0.0698202 9.06002 -0.0698202 8.78074 0.209461L5.00009 3.99011L1.21944 0.209461C0.940162 -0.0698202 0.488741 -0.0698202 0.209461 0.209461C-0.0698202 0.488741 -0.0698202 0.940162 0.209461 1.21944L3.99011 5.00009L0.209461 8.78074C-0.0698202 9.06002 -0.0698202 9.51144 0.209461 9.79072C0.348744 9.93 0.531598 10 0.714452 10C0.897305 10 1.08016 9.93 1.21944 9.79072L5.00009 6.01007L8.78074 9.79072C8.92002 9.93 9.10287 10 9.28573 10C9.46858 10 9.65143 9.93 9.79072 9.79072C10.07 9.51144 10.07 9.06002 9.79072 8.78074L6.01007 5.00009Z" fill="white"/>
</svg>
