<svg width="8" height="8" viewBox="0 0 8 8" fill="none" xmlns="http://www.w3.org/2000/svg">
<path fill-rule="evenodd" clip-rule="evenodd" d="M0.939997 3.10678C1.68471 4.72838 3.00993 6.01763 4.6573 6.71622L4.66251 6.71842L4.98076 6.86026C5.38605 7.04084 5.86238 6.91259 6.12222 6.55297L6.65322 5.81809C6.68563 5.77322 6.67726 5.7108 6.63418 5.67601L5.70722 4.92817C5.66113 4.89101 5.59334 4.89967 5.55809 4.94722L5.19734 5.43405C5.10972 5.5523 4.95147 5.59338 4.81743 5.53272C3.58559 4.97522 2.5957 3.98534 2.03823 2.75351C1.97756 2.61944 2.01864 2.46121 2.13687 2.37359L2.62369 2.01282C2.67126 1.97757 2.67993 1.90981 2.64274 1.86372L1.89481 0.936624C1.86005 0.893532 1.79766 0.885165 1.75277 0.917569L1.01389 1.45097C0.651897 1.7123 0.524418 2.19265 0.709193 2.59909L0.939997 3.10678C0.939918 3.1066 0.94008 3.10696 0.939997 3.10678ZM4.41068 7.29051C2.62068 6.53067 1.18094 5.12942 0.37176 3.36701L0.371272 3.36597L0.14023 2.85775C-0.167728 2.18035 0.0447388 1.37977 0.648068 0.944219L1.38694 0.410819C1.70116 0.183982 2.13792 0.242569 2.38125 0.54419L3.12918 1.47129C3.38943 1.79387 3.3288 2.26819 2.9958 2.51496L2.71684 2.72169C3.18809 3.63601 3.93488 4.38284 4.84922 4.85405L5.05597 4.57509C5.30272 4.24213 5.77705 4.18151 6.09963 4.44176L7.02659 5.18955C7.3283 5.43297 7.38684 5.86992 7.1598 6.18413L6.6288 6.91901C6.19576 7.51838 5.40184 7.73213 4.72643 7.43117L4.41068 7.29051Z" fill="#A1FF60"/>
</svg>
