<svg width="7" height="7" viewBox="0 0 7 7" fill="none" xmlns="http://www.w3.org/2000/svg">
<path fill-rule="evenodd" clip-rule="evenodd" d="M4.29513 4.44534C3.36428 5.19088 2.00172 5.13219 1.13884 4.26931C0.212997 3.34348 0.212997 1.84239 1.13884 0.91655C2.06468 -0.00929262 3.56578 -0.00929262 4.49161 0.91655C5.3545 1.77943 5.41318 3.14198 4.66764 4.07283L6.47841 5.88361C6.58129 5.98648 6.58129 6.15328 6.47841 6.25615C6.37558 6.35902 6.20878 6.35902 6.10591 6.25615L4.29513 4.44534ZM1.51137 3.8968C0.791271 3.17668 0.791271 2.00918 1.51137 1.28908C2.23147 0.568981 3.39898 0.568981 4.1191 1.28908C4.83865 2.00865 4.83918 3.17496 4.12068 3.89522C4.12012 3.89574 4.11959 3.89623 4.11906 3.8968C4.11854 3.89732 4.11801 3.89785 4.11748 3.89838C3.39726 4.61688 2.23094 4.61635 1.51137 3.8968Z" fill="#9C9C9C"/>
</svg>
